<svg xmlns="http://www.w3.org/2000/svg" width="800" height="600"><g><title>Layer 1</title><style transform="matrix(0.010000000298023226,0,0,0.010000000298023226,0,0) " type="text/css">.st0{fill:#FFFFFF;}
	.st1{fill:#DD4BD8;}
	.st2{fill:none;}</style><g stroke="null" id="svg_21"><path stroke="null" id="svg_5" d="m142.51483,336.90197c-2.1968,-35.14882 32.31832,-68.39656 67.21367,-67.3404c37.43011,1.0984 67.21367,30.12152 67.17142,67.63613c-0.04225,37.17663 -30.29051,67.25591 -67.46714,67.4249c-37.97931,0.08449 -68.90351,-33.58571 -66.91794,-67.72062zm67.12917,-35.06433c-20.02469,0 -35.10657,15.16638 -35.10657,35.27556c0.04225,19.47549 15.63109,35.27556 34.81085,35.3178c19.47549,0.04225 35.65577,-16.0113 35.65577,-35.27556c0,-19.55998 -15.75782,-35.3178 -35.36005,-35.3178z"></path><path stroke="null" id="svg_6" d="m628.72607,281.81296c8.11127,6.1257 16.05355,12.08241 23.86909,17.99687c-6.0412,15.4621 -32.23383,34.43063 -61.2992,31.60014c-32.23383,-3.12622 -58.93342,-29.69906 -61.51043,-60.2008c-3.46419,-41.06328 26.06589,-66.83345 50.73766,-72.62118c30.71297,-7.18185 58.59545,6.1257 72.32545,29.40334c-7.90003,6.0412 -15.92681,12.1669 -24.67177,18.84179c-8.7872,-13.22305 -20.78512,-19.64447 -36.54294,-17.6589c-8.49148,1.0984 -15.63109,5.02729 -21.16533,11.53321c-13.18081,15.41985 -11.82893,36.33171 2.99948,49.97723c15.80007,14.40595 35.10657,11.49096 55.258,-8.8717z"></path><path stroke="null" id="svg_7" d="m649.97589,390.51237c-0.46471,2.57702 -0.71818,4.52034 -1.14065,6.42142c-1.56311,6.63265 -5.53425,10.81502 -10.64604,11.15299c-5.23853,0.33797 -10.35031,-3.63317 -12.54711,-9.84336c-2.1968,-6.21019 -1.81659,-12.29364 1.60535,-17.99687c2.45028,-4.09788 6.16794,-6.46366 11.0685,-6.1257c4.81606,0.33797 7.81554,3.37969 9.37865,7.64656c1.14065,2.99948 1.6476,6.21019 2.28129,8.74496z" class="st0"></path><path stroke="null" id="svg_8" d="m129.79873,308.68152c-13.09631,-28.05146 -44.02052,-44.1895 -73.84632,-38.02156c-7.73105,1.60535 -15.16638,4.64708 -23.65786,7.30859c0,-35.82476 0,-71.52278 0,-107.6855c-10.64604,0 -20.36266,0 -30.79746,0l-0.33797,0l0,16.18029l0,0c0,50.65316 -0.04225,101.30633 0.04225,152.00174c0,3.54868 0.04225,7.18185 0.71818,10.64604c9.84336,50.94889 68.73453,72.53668 109.16412,40.00713c23.82684,-19.17976 31.64239,-52.72323 18.71506,-80.43672zm-61.63717,63.79173c-19.39099,0 -34.97983,-15.96905 -34.89534,-35.74026c0.04225,-20.06693 15.25087,-35.02208 35.36005,-34.93759c19.60223,0.08449 35.27556,15.88456 35.27556,35.44454c-0.04225,19.17976 -16.30702,35.23331 -35.74026,35.23331z"></path><path stroke="null" id="svg_9" d="m519.64644,322.15805c0.04225,-18.58832 0.04225,-37.21888 0,-55.8072c-0.12674,-36.62743 -25.34771,-63.87622 -61.76391,-66.83345c-34.93759,-2.87274 -64.34093,24.16481 -68.73453,52.72323c-1.30963,8.40699 -1.81659,17.02521 -1.94332,25.55894c-0.29572,20.15143 0,40.3451 -0.12674,60.53877c-0.12674,19.81346 -15.67333,35.27556 -35.36005,35.44454c-19.3065,0.16898 -35.27556,-15.84232 -35.36005,-35.52903c-0.08449,-18.7573 0,-37.47236 -0.04225,-56.22966c0,0 0,0 0,0l0,-10.85727l-0.50695,0c-0.67594,0 -1.30963,0 -1.98557,0c-9.12517,0 -17.82789,0 -26.91081,0l-0.59145,0l0.04225,10.01234l0,0c0,18.92629 0.16898,37.81033 -0.04225,56.73661c-0.25348,21.16533 8.36474,37.89482 24.41829,51.20237c34.00817,28.1782 88.33675,12.84284 102.91168,-28.81189c3.80216,-10.89951 3.8444,-22.137 4.09788,-33.28999c0.50695,-20.70063 0.08449,-41.40125 0.16898,-62.14412c0.08449,-20.02469 15.25087,-35.10657 35.3178,-35.14882c20.61613,-0.08449 35.867,14.61718 36.03599,34.93759c0.16898,19.17976 0.04225,38.31728 0.08449,57.49705l0,0l0,9.50539l30.33275,0l-0.04225,-9.50539l0,0z" class="st1"></path><path stroke="null" id="svg_10" d="m728.17356,224.73837c-4.98505,0 -9.92785,1.26739 -14.87065,3.75991c-11.53321,5.82997 -17.91238,14.57493 -19.39099,26.69958l51.07563,-25.81241c-5.70323,-3.12622 -11.27973,-4.64708 -16.81398,-4.64708z" class="st2"></path><path stroke="null" id="svg_11" d="m746.63514,291.86755c-7.56207,3.80216 -15.4621,4.98505 -24.24931,3.63317c-6.92837,-1.0984 -13.18081,-4.68933 -19.01078,-10.89951l91.54746,-46.21732l-2.1968,-4.43585c-9.58988,-19.47549 -23.7001,-32.52956 -41.82371,-38.78199c-18.16586,-6.25243 -35.90925,-5.11179 -52.72323,3.33745c-17.06746,8.61822 -28.60066,22.17924 -34.34614,40.26061c-5.70323,18.03912 -4.35136,35.57128 3.97114,52.08953c8.8717,17.57441 22.34823,29.48783 40.00713,35.44454c7.18185,2.40803 14.3637,3.63317 21.54555,3.63317c10.5193,0 20.9541,-2.61926 31.26217,-7.81554c19.26426,-9.71662 32.06485,-23.27764 38.23279,-42.11944l-31.72688,-10.94176c-3.59092,10.81502 -10.30807,17.6589 -20.4894,22.81294zm-33.33223,-63.41151c4.9428,-2.49252 9.88561,-3.75991 14.87065,-3.75991c5.53425,0 11.11074,1.56311 16.81398,4.64708l-51.07563,25.81241c1.47862,-12.08241 7.85779,-20.86961 19.39099,-26.69958z"></path><g stroke="null" transform="matrix(0.4224617596987064,0,0,0.4224617596987064,-16420.115445333548,-12361.922367018293) " id="svg_12"><path stroke="null" id="svg_13" d="m40058.44087,30092.71043l0,143.2l-19.3,0l0,-143.2l19.3,0z" class="st1"></path><path stroke="null" id="svg_14" d="m40082.44087,30133.01043l15.8,0l0,17.3c4.8,-7.2 10,-12.4 15.5,-15.5c5.5,-3.1 12.3,-4.7 20.2,-4.7c10.4,0 18.7,2.6 24.8,7.7c6.2,5.1 9.2,11.9 9.2,20.4l0,77.8l-17,0l0,-71.3c0,-6.2 -2,-11.1 -6,-14.7c-4,-3.7 -9.4,-5.5 -16.2,-5.5c-8.8,0 -15.8,3.2 -21.1,9.5c-5.3,6.4 -8,14.8 -8,25.2l0,56.8l-17.2,0l0,-103z" class="st1"></path><path stroke="null" id="svg_15" d="m40201.74087,30205.31043c0.8,6.2 3,11 6.7,14.6c3.6,3.6 10.2,5.4 19.6,5.4c7.5,0 13.6,-1.5 18.2,-4.4c4.6,-2.9 6.9,-6.8 6.9,-11.7c0,-3.8 -1.3,-6.8 -3.9,-9c-2.6,-2.2 -6.8,-4 -12.7,-5.3l-16,-3.7c-12.7,-2.9 -21.6,-6.5 -26.6,-10.9c-5,-4.4 -7.5,-10.6 -7.5,-18.8c0,-9.6 3.8,-17.2 11.3,-22.9c7.5,-5.7 17.5,-8.5 30,-8.5c12.5,0 22,2.7 28.7,8.2c6.7,5.5 10.1,13.3 10.3,23.4l-18.2,0c-0.4,-11 -7.6,-16.5 -21.6,-16.5c-7,0 -12.5,1.4 -16.6,4.2c-4.1,2.8 -6.2,6.6 -6.2,11.3c0,3.7 1.6,6.6 4.7,8.9c3.1,2.3 8.2,4.2 15.2,5.8l16.4,3.7c10.7,2.5 18.4,6 23.2,10.5s7.2,10.6 7.2,18.2c0,10 -4,17.9 -12,23.8c-8,5.9 -18.8,8.8 -32.3,8.8c-27.8,0 -42.1,-11.7 -42.9,-35.2l18.1,0l0,0.1z" class="st1"></path><path stroke="null" id="svg_16" d="m40308.74087,30092.71043l0,20.6l-17.2,0l0,-20.6l17.2,0zm0,40.3l0,102.9l-17,0l0,-102.9l17,0z" class="st1"></path><path stroke="null" id="svg_17" d="m40372.34087,30240.41043c-12.6,0 -23.1,-4.9 -31.6,-14.8c-8.5,-9.9 -12.7,-23 -12.7,-39.4c0,-16.8 4.2,-30.3 12.6,-40.7c8.4,-10.3 19.5,-15.5 33.2,-15.5c13.4,0 24.4,6 32.9,17.9l0,-14.9l15.8,0l0,86c0,9.8 -0.6,18 -1.8,24.7c-1.2,6.6 -3.5,12.7 -6.8,18.4c-3.3,5.6 -8.2,9.8 -14.7,12.6c-6.5,2.8 -14.8,4.1 -24.7,4.1c-12.6,0 -22.7,-2.7 -30.2,-8.2c-7.5,-5.5 -11.8,-13.1 -12.7,-22.8l17.5,0c1.9,11.5 10.6,17.3 26.1,17.3c11.5,0 19.4,-3.1 23.6,-9.3c4.2,-6.2 6.4,-15.7 6.4,-28.4l0,-5.3c-4.8,6.5 -9.8,11.3 -14.9,14.1c-5.3,2.8 -11.3,4.2 -18,4.2zm3.3,-95.2c-9.2,0 -16.4,3.6 -21.8,10.8c-5.3,7.2 -8,17 -8,29.3c0,12.4 2.7,22.2 8,29.4c5.3,7.1 12.7,10.7 22,10.7c9,0 16.2,-3.5 21.4,-10.5c5.2,-7 7.8,-16.7 7.8,-29c0,-12.8 -2.6,-22.8 -7.7,-30c-5.2,-7.2 -12.4,-10.7 -21.7,-10.7z" class="st1"></path><path stroke="null" id="svg_18" d="m40517.54087,30164.61043c0,-7.2 -2.3,-12.4 -6.9,-15.5c-4.6,-3.1 -9.7,-4.7 -15.3,-4.7c-8.8,0 -15.8,3.2 -21.1,9.5c-5.3,6.4 -8,14.8 -8,25.2l0,56.8l-17,0l0,-143.2l17,0l0,54.4c5.1,-6.3 10.2,-10.7 15.3,-13.3c5.1,-2.6 11.5,-3.8 19.2,-3.8c10.4,0 18.6,2.5 24.7,7.6c6.1,5 9.1,11.9 9.1,20.5l0,77.8l-17,0l0,-71.3z" class="st1"></path><path stroke="null" id="svg_19" d="m40599.64087,30133.01043l0,13.4l-17.7,0l0,70.5c0,3.7 0.6,6.1 1.9,7.4c1.3,1.2 3.8,1.9 7.5,1.9c3.4,0 6.2,-0.3 8.2,-0.8l0,13.8c-5.3,0.9 -10,1.4 -14,1.4c-6.7,0 -11.8,-1.4 -15.4,-4.2c-3.6,-2.8 -5.3,-6.8 -5.3,-12.1l0,-77.8l-14.6,0l0,-13.4l14.6,0l0,-28.4l17,0l0,28.3l17.8,0z" class="st1"></path><path stroke="null" id="svg_20" d="m40626.14087,30205.31043c0.8,6.2 3,11 6.7,14.6c3.6,3.6 10.2,5.4 19.6,5.4c7.5,0 13.6,-1.5 18.2,-4.4c4.6,-2.9 6.9,-6.8 6.9,-11.7c0,-3.8 -1.3,-6.8 -3.9,-9c-2.6,-2.2 -6.8,-4 -12.7,-5.3l-16,-3.7c-12.7,-2.9 -21.6,-6.5 -26.6,-10.9c-5,-4.4 -7.5,-10.6 -7.5,-18.8c0,-9.6 3.8,-17.2 11.3,-22.9c7.5,-5.7 17.5,-8.5 30,-8.5c12.5,0 22,2.7 28.7,8.2c6.7,5.5 10.1,13.3 10.3,23.4l-18.1,0c-0.4,-11 -7.6,-16.5 -21.6,-16.5c-7,0 -12.5,1.4 -16.6,4.2c-4.1,2.8 -6.2,6.6 -6.2,11.3c0,3.7 1.6,6.6 4.7,8.9c3.1,2.3 8.2,4.2 15.2,5.8l16.4,3.7c10.7,2.5 18.4,6 23.2,10.5s7.2,10.6 7.2,18.2c0,10 -4,17.9 -12,23.8c-8,5.9 -18.8,8.8 -32.3,8.8c-27.8,0 -42.1,-11.7 -42.9,-35.2l18,0l0,0.1z" class="st1"></path></g></g></g></svg>